<svg width="650" height="400.00000000000006" xmlns="http://www.w3.org/2000/svg">
 <g>
  <title>background</title>
  <rect x="-1" y="-1" width="652" height="402" id="canvas_background" fill="none"/>
 </g>

 <g>
  <title>Layer 1</title>
  <path fill="#a09b9b" stroke-width="5" stroke-opacity="null" d="m456.72967,257.76569c7.43209,34.07176 -39.07841,47.37886 -73.36192,64.45015l-271.87065,-0.75284c-14.86418,0.24403 -76.47861,-55.49896 -64.01187,-80.09866l404.92903,16.54239l4.31541,-0.14104z" id="svg_63" stroke="rgba(0, 0, 0, 1)"/>
  <path fill="#ffffff" stroke-width="5" stroke-opacity="null" d="m453.85273,240.50406c7.43209,32.55086 -39.07841,45.26395 -73.36192,61.57322l-271.87065,-0.71924c-14.86418,0.23313 -73.60167,-37.21762 -61.13493,-60.71923l402.05209,0l4.31541,-0.13475z" id="svg_64" stroke="rgba(0, 0, 0, 1)"/>
  <path stroke="rgba(0, 0, 0, 1)" fill="rgba(0, 0, 255, 1)" stroke-width="5" d="m145.22361,275.67032" id="svg_12"/>
  <ellipse cx="161.723608" cy="343.420323" rx="15.5" ry="16.25" fill="rgba(193, 193, 193, 1)" stroke="rgba(0, 0, 0, 1)" stroke-width="10" id="svg_13"/>
  <path fill="rgba(193, 193, 193, 1)" stroke="rgba(0, 0, 0, 1)" stroke-width="10" d="m305.72361,327.17032c8.56034,0 15.5,6.975 15.5,15.5s-6.975,15.5 -15.5,15.5s-15.5,-6.975 -15.5,-15.5s6.975,-15.5 15.5,-15.5z" id="svg_14"/>
  <rect x="96.98901" y="263.769849" width="24.056872" height="9.469194" fill="rgba(255, 255, 255, 1)" stroke="rgba(0, 0, 0, 1)" stroke-width="0" id="svg_19"/>
  <path stroke="rgba(0, 0, 0, 1)" fill="rgba(0, 0, 0, 1)" stroke-width="5" d="m201.93164,261.30736c8.77404,0 15.88695,6.83167 15.88695,15.18148s-7.14913,15.18148 -15.88695,15.18148s-15.88694,-6.83167 -15.88694,-15.18148s5.91058,-15.25889 14.6484,-15.25889l1.23854,0.07741z" id="svg_22"/>
  <path fill="#ffff00" stroke-width="5" d="m179.2822,263.11654l-72.5,0l100,-245l8.12306,29.28077l7.87694,-29.28077l12.12306,30l6.87694,-30l9,30c3,-10.66667 6,-19.33333 9,-30l99,245l-77,0l-51,-160l-51.5,160z" id="svg_58" stroke="#000"/>
  <rect x="214.08048" y="267.000418" width="71.958507" height="17.079165" fill="rgba(0, 0, 0, 1)" stroke="rgba(0, 0, 0, 1)" stroke-width="5" id="svg_23"/>
  <path stroke="rgba(0, 0, 0, 1)" fill="rgba(0, 0, 0, 1)" stroke-width="5" d="m291.64615,274.59115l34.57746,0" id="svg_24"/>
  <ellipse cx="287.880351" cy="275.545819" rx="2.803578" ry="8.549109" fill="rgba(0, 0, 0, 1)" stroke="rgba(0, 0, 0, 1)" stroke-width="5" id="svg_25"/>
  <path stroke="rgba(193, 193, 193, 1)" fill="rgba(255, 255, 255, 1)" stroke-width="3" d="m201.26194,260.1877c2.88203,0 5.21842,7.29445 5.21842,16.2099s-2.34829,16.20991 -5.21842,16.20991s4.07067,-7.75892 4.07067,-16.67436s-7.40526,-15.74545 -4.53513,-15.74545l0.46446,0z" id="svg_26"/>
  <rect x="203.664366" y="272.33857" width="4.322275" height="7.279621" fill="rgba(255, 255, 255, 1)" stroke="rgba(0, 0, 0, 1)" stroke-width="0" id="svg_57"/>
  <text x="325.501432" y="242.616545" font-size="24" font-family="Arial" fill="rgba(0, 0, 0, 1)" id="svg_27" stroke="rgba(0, 0, 0, 1)"/>
  <path fill="rgba(255, 255, 0, 1)" stroke-width="5" d="m269.28219,223.11655l-14.10286,-41.43847l-46.68534,0l-15.83485,41.43847l76.62305,0z" id="svg_59" stroke="rgba(0, 0, 0, 1)"/>
  <rect fill="rgba(255, 255, 0, 1)" stroke-width="0" x="178.001432" y="184.116545" width="103" height="37" id="svg_60" stroke="rgba(0, 0, 0, 1)"/>
  <g id="svg_65" transform="rotate(0.42698439955711365 226.73817443847517,311.9215087890619) ">
   <text x="136.48579" y="192.224316" font-size="24" font-family="Arial" fill="rgba(0, 0, 0, 1)" stroke="rgba(0, 0, 0, 1)" transform="matrix(0.5302242636680603,0,0,0.5840573906898499,44.31478571077332,206.3839500504855) " id="svg_28">A</text>
   <text x="133.72462" y="152.559721" font-size="24" font-family="Arial" fill="rgba(0, 0, 0, 1)" stroke="rgba(0, 0, 0, 1)" transform="matrix(0.5281322002410889,0,0,0.5208662748336792,43.13042834098087,236.3140258235362) " id="svg_30">L</text>
   <text x="150.111666" y="151.770661" font-size="24" font-family="Arial" fill="rgba(0, 0, 0, 1)" stroke="rgba(0, 0, 0, 1)" transform="matrix(0.5281322002410889,0,0,0.5208662748336792,50.86294826943595,236.21448771889118) " id="svg_31">L</text>
   <text x="152.872836" y="191.498151" font-size="24" font-family="Arial" fill="rgba(0, 0, 0, 1)" stroke="rgba(0, 0, 0, 1)" transform="matrix(0.5302242636680603,0,0,0.5840573906898499,52.013025355211084,206.29753921582778) " id="svg_32">A</text>
   <text x="166.372941" y="151.678552" font-size="24" font-family="Arial" fill="rgba(0, 0, 0, 1)" stroke="rgba(0, 0, 0, 1)" transform="matrix(0.5281322002410889,0,0,0.5208662748336792,58.53612021222398,236.17036159648706) " id="svg_33">L</text>
   <text x="169.134112" y="191.406042" font-size="24" font-family="Arial" fill="rgba(0, 0, 0, 1)" stroke="rgba(0, 0, 0, 1)" transform="matrix(0.5302242636680603,0,0,0.5840573906898499,59.65217544719371,206.25923540318763) " id="svg_34">A</text>
   <text x="182.759987" y="151.470811" font-size="24" font-family="Arial" fill="rgba(0, 0, 0, 1)" stroke="rgba(0, 0, 0, 1)" transform="matrix(0.5281322002410889,0,0,0.5208662748336792,66.26864014067905,236.07082349184202) " id="svg_35">L</text>
   <text x="185.521158" y="191.198301" font-size="24" font-family="Arial" fill="rgba(0, 0, 0, 1)" stroke="rgba(0, 0, 0, 1)" transform="matrix(0.5302242636680603,0,0,0.5840573906898499,67.35041509163148,206.1728245685299) " id="svg_36">A</text>
   <text x="200.490656" y="151.021523" font-size="24" font-family="Arial" fill="rgba(0, 0, 0, 1)" stroke="rgba(0, 0, 0, 1)" transform="matrix(0.5281322002410889,0,0,0.5208662748336792,74.63517094541385,236.13408788923698) " id="svg_37">L</text>
   <text x="203.251826" y="190.811908" font-size="24" font-family="Arial" fill="rgba(0, 0, 0, 1)" stroke="rgba(0, 0, 0, 1)" transform="matrix(0.5302242636680603,0,0,0.5840573906898499,75.67985348586262,206.22774036506053) " id="svg_38">A</text>
   <text x="216.877701" y="150.813782" font-size="24" font-family="Arial" fill="rgba(0, 0, 0, 1)" stroke="rgba(0, 0, 0, 1)" transform="matrix(0.5281322002410889,0,0,0.5208662748336792,82.36768684454,236.03454978459195) " id="svg_39">L</text>
   <text x="219.638872" y="190.604167" font-size="24" font-family="Arial" fill="rgba(0, 0, 0, 1)" stroke="rgba(0, 0, 0, 1)" transform="matrix(0.5302242636680603,0,0,0.5840573906898499,83.37808908501029,206.1413295304028) " id="svg_40">A</text>
   <text x="233.138977" y="150.721673" font-size="24" font-family="Arial" fill="rgba(0, 0, 0, 1)" stroke="rgba(0, 0, 0, 1)" transform="matrix(0.5281322002410889,0,0,0.5208662748336792,90.04085878732803,235.9904077666106) " id="svg_41">L</text>
   <text x="235.900148" y="190.512058" font-size="24" font-family="Arial" fill="rgba(0, 0, 0, 1)" stroke="rgba(0, 0, 0, 1)" transform="matrix(0.5302242636680603,0,0,0.5840573906898499,91.01723917699292,206.1030078937456) " id="svg_42">A</text>
   <text x="249.526023" y="150.513932" font-size="24" font-family="Arial" fill="rgba(0, 0, 0, 1)" stroke="rgba(0, 0, 0, 1)" transform="matrix(0.5281322002410889,0,0,0.5208662748336792,97.77338274511203,235.89086966196555) " id="svg_43">L</text>
   <text x="252.287193" y="190.304317" font-size="24" font-family="Arial" fill="rgba(0, 0, 0, 1)" stroke="rgba(0, 0, 0, 1)" transform="matrix(0.5302242636680603,0,0,0.5840573906898499,98.71548286672078,206.01661488310492) " id="svg_44">A</text>
   <text x="266.402808" y="150.751391" font-size="24" font-family="Arial" fill="rgba(0, 0, 0, 1)" stroke="rgba(0, 0, 0, 1)" transform="matrix(0.5281322002410889,0,0,0.5208662748336792,105.73698871647503,236.00465020381307) " id="svg_45">L</text>
   <text x="269.163978" y="190.541776" font-size="24" font-family="Arial" fill="rgba(0, 0, 0, 1)" stroke="rgba(0, 0, 0, 1)" transform="matrix(0.5302242636680603,0,0,0.5840573906898499,106.64378220429717,206.1153777615782) " id="svg_46">A</text>
   <text x="282.789854" y="149.962331" font-size="24" font-family="Arial" fill="rgba(0, 0, 0, 1)" stroke="rgba(0, 0, 0, 1)" transform="matrix(0.5281322002410889,0,0,0.5208662748336792,113.46950461560118,235.90511209916804) " id="svg_47">L</text>
   <text x="285.551024" y="189.815611" font-size="24" font-family="Arial" fill="rgba(0, 0, 0, 1)" stroke="rgba(0, 0, 0, 1)" transform="matrix(0.5302242636680603,0,0,0.5840573906898499,114.34201780344483,206.02896692692048) " id="svg_48">A</text>
   <text x="299.051129" y="149.870222" font-size="24" font-family="Arial" fill="rgba(0, 0, 0, 1)" stroke="rgba(0, 0, 0, 1)" transform="matrix(0.5281322002410889,0,0,0.5208662748336792,121.14267655838921,235.8609859767639) " id="svg_49">L</text>
   <text x="301.8123" y="189.723502" font-size="24" font-family="Arial" fill="rgba(0, 0, 0, 1)" stroke="rgba(0, 0, 0, 1)" transform="matrix(0.5302242636680603,0,0,0.5840573906898499,121.98117598600766,205.99066311428032) " id="svg_50">A</text>
   <text x="315.438175" y="149.662481" font-size="24" font-family="Arial" fill="rgba(0, 0, 0, 1)" stroke="rgba(0, 0, 0, 1)" transform="matrix(0.5281322002410889,0,0,0.5208662748336792,128.8752005161732,235.76144787211888) " id="svg_51">L</text>
   <text x="318.199346" y="189.515761" font-size="24" font-family="Arial" fill="rgba(0, 0, 0, 1)" stroke="rgba(0, 0, 0, 1)" transform="matrix(0.5302242636680603,0,0,0.5840573906898499,129.67941158515532,205.9042522796226) " id="svg_52">A</text>
   <text x="332.044828" y="149.89994" font-size="24" font-family="Arial" fill="rgba(0, 0, 0, 1)" stroke="rgba(0, 0, 0, 1)" transform="matrix(0.5281322002410889,0,0,0.5208662748336792,136.71134269647155,235.8752284139664) " id="svg_53">L</text>
   <text x="334.805999" y="189.75322" font-size="24" font-family="Arial" fill="rgba(0, 0, 0, 1)" stroke="rgba(0, 0, 0, 1)" transform="matrix(0.5302242636680603,0,0,0.5840573906898499,137.4808182629513,206.00301515809588) " id="svg_54">A</text>
   <text x="348.431874" y="149.11088" font-size="24" font-family="Arial" fill="rgba(0, 0, 0, 1)" stroke="rgba(0, 0, 0, 1)" transform="matrix(0.5281322002410889,0,0,0.5208662748336792,144.44386665425554,235.77569030932136) " id="svg_55">L</text>
   <text x="351.193045" y="189.027054" font-size="24" font-family="Arial" fill="rgba(0, 0, 0, 1)" stroke="rgba(0, 0, 0, 1)" transform="matrix(0.5302242636680603,0,0,0.5840573906898499,145.17905386209895,205.91660432343815) " id="svg_56">A</text>
  </g>
  <g id="svg_70">
   <path stroke="rgba(0, 0, 0, 1)" fill="rgba(0, 0, 255, 1)" stroke-width="5" d="m484.88632,102.84227c162.17689,112.75028 100.63463,9.80972 55.21,-5.88456c-45.42462,-15.69428 -100.22287,3.59434 -109.08873,7.26116c-8.86586,3.66682 -27.64194,14.0307 -34.6809,18.85394c-7.03897,4.82325 -13.25396,10.12383 -18.82392,15.69998c-5.56997,5.57614 -10.49491,11.42785 -14.95379,17.35337c-4.45887,5.92552 -8.45168,11.92483 -12.15736,17.7962c-3.70569,5.87135 -33.00455,56.1712 -15.26462,35.36028c17.73992,-20.81091 109.25602,-36.84349 72.05443,-22.72047c-37.20159,14.12302 -97.50939,92.22056 -60.77902,62.76852c36.73037,-29.45203 70.16995,-8.56272 59.9313,-14.42537c-10.23866,-5.86264 -62.15895,31.25059 -55.0126,78.88227c21.18385,-32.03797 57.65658,-43.06985 58.93271,-34.28067c-35.98701,14.45962 -54.88348,98.79463 -41.07164,75.72317c13.81183,-23.07147 93.56135,-71.50986 131.33495,-66.40647" id="svg_68"/>
   <path stroke="rgba(0, 0, 0, 1)" id="svg_6" d="m537.26015,168.54337c0,-13.67663 -9.12891,-15.5215 -14.01874,-17.09998c-4.88983,-1.57847 -62.19337,4.77205 -50.73429,-15.08528c11.45908,-19.85733 71.05792,-23.60508 89.00511,-18.61551c17.94719,4.98957 31.40545,16.80091 31.90519,45.71978c0.49974,28.91887 -39.00853,43.39625 -70.33173,40.09122c-31.3232,-3.30503 -54.9827,-21.11915 -34.9019,-21.20233c10.0404,-0.04159 38.80108,0.86261 43.06288,-1.18173c4.26179,-2.04434 6.01348,-5.78786 6.01348,-12.62617z" stroke-opacity="null" stroke-linecap="null" stroke-linejoin="null" stroke-width="5" fill-opacity="null" fill="rgba(0, 0, 255, 1)"/>
   <rect stroke="rgba(0, 0, 0, 1)" id="svg_7" height="63.30925" width="29.595254" y="134.89219" x="466.29798" fill-opacity="null" stroke-opacity="null" stroke-width="5" fill="rgba(0, 0, 255, 1)"/>
   <path id="svg_29" d="m464.26342,97.95009l67.96535,1.49923c10.24478,4.83087 23.40476,10.07819 30.73435,14.49261c7.32959,4.41442 21.15588,20.32298 19.9898,23.98778l-17.86589,5.87201c-5.9553,1.95733 -7.24399,2.24802 -17.8659,5.872c-17.16296,1.41612 -125.06123,2.25175 -64.97211,-14.49782l8.25102,52.56169c-6.49645,-5.24874 26.73637,-1.66574 38.98013,-1.58245c3.08177,-2.24885 2.16557,-2.7486 6.99644,-4.74758l29.48497,11.49414l3.74809,10.24478c-7.57947,4.41442 -4.91416,35.06546 -22.73841,13.24325c-3.49822,-0.16658 -108.65334,0.25127 -112.15155,-0.66493l62.09456,-1.75035l-5.16511,0.83259l1.74935,40.31295l-1.74911,27.73587l-21.23917,6.24681l-22.48854,-10.74452l16.24173,-180.40806z" fill-opacity="null" stroke-opacity="null" stroke-width="0" stroke="rgba(0, 0, 0, 1)" fill="rgba(0, 0, 255, 1)"/>
   <line stroke-linecap="null" stroke-linejoin="null" id="svg_61" y2="213.16387" x2="496.32684" y1="252.496689" x1="496.160175" fill-opacity="null" stroke-opacity="null" stroke-width="5" stroke="rgba(0, 0, 0, 1)" fill="none"/>
   <path stroke="rgba(0, 0, 0, 1)" id="svg_5" d="m540.346662,224.29429c-1.05944,-1.3504 3.33556,4.20515 -4.14363,-4.12931c-7.47919,-8.33445 -65.31297,2.17441 -4.42493,-9.50905c60.88804,-11.68346 -4.18186,-6.83888 7.23034,-11.33722c22.82438,-8.9967 59.0213,6.78939 59.0213,38.35982c0,31.57043 -23.47503,52.05979 -68.83449,52.41587c-45.35945,0.35608 -72.2489,1.31171 -71.27609,-24.5965c0.4864,-12.9541 45.37592,-16.13958 67.96113,-15.05619c22.58521,1.08338 18.70413,-20.74584 14.46637,-26.14742z" stroke-opacity="null" stroke-linecap="null" stroke-linejoin="null" stroke-width="5" fill-opacity="null" fill="rgba(0, 0, 255, 1)"/>
   <line stroke-linecap="null" stroke-linejoin="null" id="svg_66" y2="216.830489" x2="523.159822" y1="217.163818" x1="495.160188" fill-opacity="null" stroke-opacity="null" stroke-width="5" stroke="rgba(0, 0, 0, 1)" fill="none"/>
   <path stroke="rgba(0, 0, 0, 1)" id="svg_67" d="m565.99259,186.74751l0.99999,15.83314c-3.4444,9.99987 -14.55537,8.33322 -21.83305,12.49983l-15.16647,-0.33333l-44.33275,-0.16666l7.5832,34.41625l0.58336,7.41653l-9.8332,28.99962l-13.49983,4.16662c-13.49982,-3.72218 -24.91444,-11.2785 -15.99979,-26.66632l-1.16665,-70.99907l112.66519,-5.16661z" fill-opacity="null" stroke-opacity="null" stroke-width="0" fill="rgba(0, 0, 255, 1)"/>
  </g>
 </g>
</svg>