<svg width="650" height="400.00000000000006" xmlns="http://www.w3.org/2000/svg">

 <g>
  <title>background</title>
  <rect fill="none" id="canvas_background" height="268" width="435" y="-1" x="-1"/>
 </g>
 <g>
  <title>Layer 1</title>
  <path stroke="rgba(0, 0, 0, 1)" id="svg_63" d="m456.729666,257.765685c7.432091,34.071766 -39.078409,47.378863 -73.361921,64.450159l-271.870646,-0.75284c-14.86418,0.244022 -76.478606,-55.498969 -64.011873,-80.098665l404.929033,16.542395z" stroke-opacity="null" stroke-width="5" fill="#a09b9b"/>
  <path stroke="rgba(0, 0, 0, 1)" id="svg_64" d="m453.852728,240.504057c7.432091,32.550865 -39.078409,45.263957 -73.361921,61.573222l-271.870646,-0.719235c-14.86418,0.23313 -73.601668,-37.217624 -61.134935,-60.719234l402.052095,0z" stroke-opacity="null" stroke-width="5" fill="#ffffff"/>
  <path id="svg_12" d="m145.223608,275.670323" stroke-width="5" fill="rgba(0, 0, 255, 1)" stroke="rgba(0, 0, 0, 1)"/>
  <ellipse id="svg_13" stroke-width="10" stroke="rgba(0, 0, 0, 1)" fill="rgba(193, 193, 193, 1)" ry="16.25" rx="15.5" cy="343.420323" cx="161.723608"/>
  <path id="svg_14" d="m305.723608,327.170323c8.56034,0 15.5,6.975 15.5,15.5s-6.975,15.5 -15.5,15.5s-15.5,-6.975 -15.5,-15.5s6.975,-15.5 15.5,-15.5z" stroke-width="10" stroke="rgba(0, 0, 0, 1)" fill="rgba(193, 193, 193, 1)"/>
  <rect id="svg_19" stroke-width="0" stroke="rgba(0, 0, 0, 1)" fill="rgba(255, 255, 255, 1)" height="9.469194" width="24.056872" y="263.769849" x="96.98901"/>
  <path id="svg_22" d="m201.931638,261.307363c8.77404,0 15.88695,6.83167 15.88695,15.18148s-7.14913,15.18148 -15.88695,15.18148s-15.88694,-6.83167 -15.88694,-15.18148s5.91058,-15.25889 14.6484,-15.25889l1.23854,0.07741z" stroke-width="5" fill="rgba(0, 0, 0, 1)" stroke="rgba(0, 0, 0, 1)"/>
  <path stroke="#000" id="svg_58" d="m179.282202,263.116545l-72.5,0l100,-245l8.12306,29.28077l7.87694,-29.28077l12.12306,30l6.87694,-30l9,30c3,-10.66667 6,-19.33333 9,-30l99,245l-77,0l-51,-160l-51.5,160z" stroke-width="5" fill="#ffff00"/>
  <rect id="svg_23" stroke-width="5" stroke="rgba(0, 0, 0, 1)" fill="rgba(0, 0, 0, 1)" height="17.079165" width="71.958507" y="267.000418" x="214.08048"/>
  <path id="svg_24" d="m291.646148,274.591153l34.57746,0" stroke-width="5" fill="rgba(0, 0, 0, 1)" stroke="rgba(0, 0, 0, 1)"/>
  <ellipse id="svg_25" stroke-width="5" stroke="rgba(0, 0, 0, 1)" fill="rgba(0, 0, 0, 1)" ry="8.549109" rx="2.803578" cy="275.545819" cx="287.880351"/>
  <path id="svg_26" d="m201.261938,260.187703c2.88203,0 5.21842,7.29445 5.21842,16.2099s-2.34829,16.20991 -5.21842,16.20991s4.07067,-7.75892 4.07067,-16.67436s-7.40526,-15.74545 -4.53513,-15.74545l0.46446,0z" stroke-width="3" fill="rgba(255, 255, 255, 1)" stroke="rgba(193, 193, 193, 1)"/>
  <rect id="svg_57" stroke-width="0" stroke="rgba(0, 0, 0, 1)" fill="rgba(255, 255, 255, 1)" height="7.279621" width="4.322275" y="272.33857" x="203.664366"/>
  <text id="svg_4" stroke-width="5" stroke="rgba(0, 0, 0, 1)" fill="rgba(0, 0, 255, 1)" font-family="Arial Black" font-size="240" y="291.609819" x="423.627526">B</text>
  <text stroke="rgba(0, 0, 0, 1)" id="svg_27" fill="rgba(0, 0, 0, 1)" font-family="Arial" font-size="24" y="242.616545" x="325.501432"/>
  <path stroke="rgba(0, 0, 0, 1)" id="svg_59" d="m269.282192,223.116545l-14.10286,-41.43847l-46.68534,0l-15.83485,41.43847l76.62305,0z" stroke-width="5" fill="rgba(255, 255, 0, 1)"/>
  <rect stroke="rgba(0, 0, 0, 1)" id="svg_60" height="37" width="103" y="184.116545" x="178.001432" stroke-width="0" fill="rgba(255, 255, 0, 1)"/>
  <g transform="rotate(0.42698439955711365 226.73817443847517,311.9215087890619) " id="svg_65">
   <text id="svg_28" transform="matrix(0.5302242636680603,0,0,0.5840573906898499,44.31478571077332,206.3839500504855) " stroke="rgba(0, 0, 0, 1)" fill="rgba(0, 0, 0, 1)" font-family="Arial" font-size="24" y="192.224316" x="136.48579">A</text>
   <text id="svg_30" transform="matrix(0.5281322002410889,0,0,0.5208662748336792,43.13042834098087,236.3140258235362) " stroke="rgba(0, 0, 0, 1)" fill="rgba(0, 0, 0, 1)" font-family="Arial" font-size="24" y="152.559721" x="133.72462">L</text>
   <text id="svg_31" transform="matrix(0.5281322002410889,0,0,0.5208662748336792,50.86294826943595,236.21448771889118) " stroke="rgba(0, 0, 0, 1)" fill="rgba(0, 0, 0, 1)" font-family="Arial" font-size="24" y="151.770661" x="150.111666">L</text>
   <text id="svg_32" transform="matrix(0.5302242636680603,0,0,0.5840573906898499,52.013025355211084,206.29753921582778) " stroke="rgba(0, 0, 0, 1)" fill="rgba(0, 0, 0, 1)" font-family="Arial" font-size="24" y="191.498151" x="152.872836">A</text>
   <text id="svg_33" transform="matrix(0.5281322002410889,0,0,0.5208662748336792,58.53612021222398,236.17036159648706) " stroke="rgba(0, 0, 0, 1)" fill="rgba(0, 0, 0, 1)" font-family="Arial" font-size="24" y="151.678552" x="166.372941">L</text>
   <text id="svg_34" transform="matrix(0.5302242636680603,0,0,0.5840573906898499,59.65217544719371,206.25923540318763) " stroke="rgba(0, 0, 0, 1)" fill="rgba(0, 0, 0, 1)" font-family="Arial" font-size="24" y="191.406042" x="169.134112">A</text>
   <text id="svg_35" transform="matrix(0.5281322002410889,0,0,0.5208662748336792,66.26864014067905,236.07082349184202) " stroke="rgba(0, 0, 0, 1)" fill="rgba(0, 0, 0, 1)" font-family="Arial" font-size="24" y="151.470811" x="182.759987">L</text>
   <text id="svg_36" transform="matrix(0.5302242636680603,0,0,0.5840573906898499,67.35041509163148,206.1728245685299) " stroke="rgba(0, 0, 0, 1)" fill="rgba(0, 0, 0, 1)" font-family="Arial" font-size="24" y="191.198301" x="185.521158">A</text>
   <text id="svg_37" transform="matrix(0.5281322002410889,0,0,0.5208662748336792,74.63517094541385,236.13408788923698) " stroke="rgba(0, 0, 0, 1)" fill="rgba(0, 0, 0, 1)" font-family="Arial" font-size="24" y="151.021523" x="200.490656">L</text>
   <text id="svg_38" transform="matrix(0.5302242636680603,0,0,0.5840573906898499,75.67985348586262,206.22774036506053) " stroke="rgba(0, 0, 0, 1)" fill="rgba(0, 0, 0, 1)" font-family="Arial" font-size="24" y="190.811908" x="203.251826">A</text>
   <text id="svg_39" transform="matrix(0.5281322002410889,0,0,0.5208662748336792,82.36768684454,236.03454978459195) " stroke="rgba(0, 0, 0, 1)" fill="rgba(0, 0, 0, 1)" font-family="Arial" font-size="24" y="150.813782" x="216.877701">L</text>
   <text id="svg_40" transform="matrix(0.5302242636680603,0,0,0.5840573906898499,83.37808908501029,206.1413295304028) " stroke="rgba(0, 0, 0, 1)" fill="rgba(0, 0, 0, 1)" font-family="Arial" font-size="24" y="190.604167" x="219.638872">A</text>
   <text id="svg_41" transform="matrix(0.5281322002410889,0,0,0.5208662748336792,90.04085878732803,235.9904077666106) " stroke="rgba(0, 0, 0, 1)" fill="rgba(0, 0, 0, 1)" font-family="Arial" font-size="24" y="150.721673" x="233.138977">L</text>
   <text id="svg_42" transform="matrix(0.5302242636680603,0,0,0.5840573906898499,91.01723917699292,206.1030078937456) " stroke="rgba(0, 0, 0, 1)" fill="rgba(0, 0, 0, 1)" font-family="Arial" font-size="24" y="190.512058" x="235.900148">A</text>
   <text id="svg_43" transform="matrix(0.5281322002410889,0,0,0.5208662748336792,97.77338274511203,235.89086966196555) " stroke="rgba(0, 0, 0, 1)" fill="rgba(0, 0, 0, 1)" font-family="Arial" font-size="24" y="150.513932" x="249.526023">L</text>
   <text id="svg_44" transform="matrix(0.5302242636680603,0,0,0.5840573906898499,98.71548286672078,206.01661488310492) " stroke="rgba(0, 0, 0, 1)" fill="rgba(0, 0, 0, 1)" font-family="Arial" font-size="24" y="190.304317" x="252.287193">A</text>
   <text id="svg_45" transform="matrix(0.5281322002410889,0,0,0.5208662748336792,105.73698871647503,236.00465020381307) " stroke="rgba(0, 0, 0, 1)" fill="rgba(0, 0, 0, 1)" font-family="Arial" font-size="24" y="150.751391" x="266.402808">L</text>
   <text id="svg_46" transform="matrix(0.5302242636680603,0,0,0.5840573906898499,106.64378220429717,206.1153777615782) " stroke="rgba(0, 0, 0, 1)" fill="rgba(0, 0, 0, 1)" font-family="Arial" font-size="24" y="190.541776" x="269.163978">A</text>
   <text id="svg_47" transform="matrix(0.5281322002410889,0,0,0.5208662748336792,113.46950461560118,235.90511209916804) " stroke="rgba(0, 0, 0, 1)" fill="rgba(0, 0, 0, 1)" font-family="Arial" font-size="24" y="149.962331" x="282.789854">L</text>
   <text id="svg_48" transform="matrix(0.5302242636680603,0,0,0.5840573906898499,114.34201780344483,206.02896692692048) " stroke="rgba(0, 0, 0, 1)" fill="rgba(0, 0, 0, 1)" font-family="Arial" font-size="24" y="189.815611" x="285.551024">A</text>
   <text id="svg_49" transform="matrix(0.5281322002410889,0,0,0.5208662748336792,121.14267655838921,235.8609859767639) " stroke="rgba(0, 0, 0, 1)" fill="rgba(0, 0, 0, 1)" font-family="Arial" font-size="24" y="149.870222" x="299.051129">L</text>
   <text id="svg_50" transform="matrix(0.5302242636680603,0,0,0.5840573906898499,121.98117598600766,205.99066311428032) " stroke="rgba(0, 0, 0, 1)" fill="rgba(0, 0, 0, 1)" font-family="Arial" font-size="24" y="189.723502" x="301.8123">A</text>
   <text id="svg_51" transform="matrix(0.5281322002410889,0,0,0.5208662748336792,128.8752005161732,235.76144787211888) " stroke="rgba(0, 0, 0, 1)" fill="rgba(0, 0, 0, 1)" font-family="Arial" font-size="24" y="149.662481" x="315.438175">L</text>
   <text id="svg_52" transform="matrix(0.5302242636680603,0,0,0.5840573906898499,129.67941158515532,205.9042522796226) " stroke="rgba(0, 0, 0, 1)" fill="rgba(0, 0, 0, 1)" font-family="Arial" font-size="24" y="189.515761" x="318.199346">A</text>
   <text id="svg_53" transform="matrix(0.5281322002410889,0,0,0.5208662748336792,136.71134269647155,235.8752284139664) " stroke="rgba(0, 0, 0, 1)" fill="rgba(0, 0, 0, 1)" font-family="Arial" font-size="24" y="149.89994" x="332.044828">L</text>
   <text id="svg_54" transform="matrix(0.5302242636680603,0,0,0.5840573906898499,137.4808182629513,206.00301515809588) " stroke="rgba(0, 0, 0, 1)" fill="rgba(0, 0, 0, 1)" font-family="Arial" font-size="24" y="189.75322" x="334.805999">A</text>
   <text id="svg_55" transform="matrix(0.5281322002410889,0,0,0.5208662748336792,144.44386665425554,235.77569030932136) " stroke="rgba(0, 0, 0, 1)" fill="rgba(0, 0, 0, 1)" font-family="Arial" font-size="24" y="149.11088" x="348.431874">L</text>
   <text id="svg_56" transform="matrix(0.5302242636680603,0,0,0.5840573906898499,145.17905386209895,205.91660432343815) " stroke="rgba(0, 0, 0, 1)" fill="rgba(0, 0, 0, 1)" font-family="Arial" font-size="24" y="189.027054" x="351.193045">A</text>
  </g>
  <path stroke="rgba(0, 0, 0, 1)" id="svg_68" d="m484.886318,102.524119c162.176889,112.890212 100.634633,9.8219 55.210006,-5.891859c-45.424628,-15.71376 -100.222873,3.5988 -109.088732,7.270169c-8.865861,3.671369 -27.641944,14.048109 -34.680906,18.877342c-7.038962,4.829233 -13.253951,10.136391 -18.823918,15.719458c-5.569966,5.583066 -10.494912,11.442042 -14.953786,17.374913c-4.458874,5.932869 -8.451678,11.939632 -12.157364,17.818276c-3.705686,5.878642 -33.004545,56.240916 -15.264623,35.404174c17.739922,-20.836742 109.256024,-36.889218 72.054436,-22.74867c-37.201587,14.140549 -97.509394,92.335004 -60.77902,62.846422c36.730373,-29.488581 70.169948,-8.573354 59.931295,-14.443274c-10.238654,-5.869921 -62.158951,31.289373 -55.012593,78.980158c21.183846,-32.077731 57.656575,-43.123295 58.932711,-34.323208c-35.987016,14.477558 -54.883481,98.917234 -41.071648,75.817139c13.811833,-23.100095 69.3237,-69.847329 107.097304,-64.737599" stroke-width="5" fill="rgba(0, 0, 255, 1)"/>
  <path id="svg_70" d="m480.65391,100.324484l34.332434,0.666631l40.665601,15.666256l27.999266,24.66602l4.33322,11.666361l1.666623,8.333115l-5.666518,5.666518c0.000006,0.000022 -42.99887,-15.666235 -42.99887,-15.666235c0,0 -45.332148,-11.333037 -45.332149,-11.333057c0.000001,0.00002 -24.999345,-8.999744 -25.33267,-8.999764l10.333063,-30.665845z" fill-opacity="null" stroke-opacity="null" stroke-width="0" stroke="rgba(0, 0, 0, 1)" fill="rgba(0, 0, 255, 1)"/>
 </g>
</svg>