<svg width="573" height="401" xmlns="http://www.w3.org/2000/svg">

 <g>
  <title>background</title>
  <rect fill="none" id="canvas_background" height="202" width="288" y="-1" x="-1"/>
 </g>
 <g>
  <title>Layer 1</title>
  <path id="svg_1" d="m21.25386,243.456421l372.324326,2.005127l-49.014038,75.507782l-270.465775,3.22879l-54.380363,-79.461823l1.535851,-1.279877z" stroke-width="5" fill="rgba(255, 255, 255, 1)" stroke="rgba(0, 0, 0, 1)"/>
  <text id="svg_2" transform="matrix(1.3262032270431519,0,0,1.2083333730697632,-26.039570646111088,-93.79001720593078) " stroke-width="5" stroke="rgba(0, 0, 0, 1)" fill="rgba(255, 255, 0, 1)" font-family="Arial Black" font-size="240" y="296.339302" x="79.826224">A</text>
  <path id="svg_3" d="m448.514374,119.929756c63.101746,14.331535 88.191376,48.12011 70.937103,71.109398s-46.577393,-18.986633 -109.41864,-33.259033s-143.944946,31.264374 -126.690674,8.275085s102.330963,-60.397797 165.172211,-46.12545z" stroke-width="6" stroke="rgba(0, 0, 0, 1)" fill="rgba(0, 0, 255, 1)"/>
  <text id="svg_4" stroke-width="5" stroke="rgba(0, 0, 0, 1)" fill="rgba(0, 0, 255, 1)" font-family="Arial Black" font-size="240" y="318.03429" x="358.380983">B</text>
  <path id="svg_5" d="m247.284698,66.620155l-15.81781,-43.562168l-9.323792,24.608658l-8.972321,-24.608658l-8.004547,25.157085l-10.863312,-25.157085l-9.310516,24.258331l-6.778763,-23.032551l-24.024063,59.48304" stroke-width="6" fill="rgba(255, 255, 0, 1)" stroke="rgba(0, 0, 0, 1)"/>
  <path id="svg_6" d="m364.906769,272.362701c34.96167,-8.449036 53.111603,6.542664 58.098083,27.176392s-39.412994,16.356506 -74.230347,24.77066s-38.5383,55.883911 -43.52478,35.250183s24.839722,-78.783051 59.657043,-87.197235z" stroke-width="6" fill="rgba(0, 0, 255, 1)" stroke="rgba(0, 0, 0, 1)"/>
  <path id="svg_7" d="m369.478333,218.075745c31.116058,-0.220062 7.055786,24.477844 6.73288,44.872131s-6.673218,10.240875 -37.660828,10.460052s-44.451752,43.799622 -44.128845,23.405365s34.45343,-78.172638 65.44104,-78.391815l9.615753,-0.345734z" stroke-width="6" stroke="rgba(0, 0, 0, 1)" fill="rgba(0, 0, 255, 1)"/>
  <path id="svg_8" d="m380.815582,150.977142c29.89328,12.020844 33.419739,62.752563 25.24585,82.035187s-17.801575,-8.486877 -47.571442,-20.458099s-73.473938,30.212891 -65.300049,10.930267s57.855774,-78.949371 87.625641,-66.978119l0,-5.529236z" stroke-width="6" stroke="rgba(0, 0, 0, 1)" fill="rgba(0, 0, 255, 1)"/>
  <rect id="svg_9" stroke-width="0" stroke="rgba(0, 0, 0, 1)" fill="rgba(0, 0, 255, 1)" height="177.582908" width="58.717082" y="137.71036" x="369"/>
  <path id="svg_10" d="m486.255493,137.033905l-9.80722,0l-97.067291,8.230774l140.796814,29.036896l-33.922302,-37.26767z" stroke-width="0" fill="rgba(0, 0, 255, 1)" stroke="rgba(0, 0, 0, 1)"/>
  <path id="svg_11" d="m492.284027,145.718414c14.412842,0 22.096954,6.516968 26.096954,23.371002c2.968201,12.506653 -11.743622,23.371002 -26.096954,23.371002s-25.096954,-12.516937 -25.096954,-25.371002s14.329041,-24.239319 28.682373,-24.239319l-3.585419,2.868317z" stroke-width="0" fill="rgba(0, 0, 255, 1)" stroke="rgba(0, 0, 0, 1)"/>
  <path id="svg_12" d="m115,279.209961" stroke-width="5" fill="rgba(0, 0, 255, 1)" stroke="rgba(0, 0, 0, 1)"/>
  <ellipse id="svg_13" stroke-width="15" stroke="rgba(0, 0, 0, 1)" fill="rgba(193, 193, 193, 1)" ry="16.25" rx="15.5" cy="346.96036" cx="131.5"/>
  <path id="svg_14" d="m275.5,330.709961c8.560333,0 15.5,6.974976 15.5,15.5s-6.975006,15.5 -15.5,15.5s-15.5,-6.974976 -15.5,-15.5s6.975006,-15.5 15.5,-15.5z" stroke-width="15" stroke="rgba(0, 0, 0, 1)" fill="rgba(193, 193, 193, 1)"/>
  <path id="svg_15" d="m90.041672,266.363556c25.489487,2.007782 24.079926,-4.015594 24.079926,18.070068s-11.486938,39.879822 -36.871201,39.879822s-60.451817,-51.926544 -60.451817,-74.012207s19.451759,16.338257 44.83601,16.338257l28.407082,-0.27594z" stroke-width="5" fill="rgba(255, 255, 255, 1)" stroke="rgba(0, 0, 0, 1)"/>
  <path id="svg_16" d="m80.177727,266.285797l49.822273,2l-6,50.701416l-43.822273,3l0,-55.701416z" stroke-width="0" fill="rgba(255, 255, 255, 1)" stroke="rgba(0, 0, 0, 1)"/>
  <rect id="svg_17" stroke-width="0" stroke="rgba(0, 0, 0, 1)" fill="rgba(255, 255, 255, 1)" height="6.947867" width="13.933649" y="246.044483" x="20.116114"/>
  <rect id="svg_18" stroke-width="0" stroke="rgba(0, 0, 0, 1)" fill="rgba(255, 255, 255, 1)" height="25.848341" width="48.881517" y="247.835952" x="27.097156"/>
  <rect id="svg_19" stroke-width="0" stroke="rgba(0, 0, 0, 1)" fill="rgba(255, 255, 255, 1)" height="9.469194" width="24.056872" y="267.309886" x="66.765403"/>
  <rect id="svg_20" stroke-width="0" stroke="rgba(0, 0, 0, 1)" fill="rgba(255, 255, 255, 1)" height="10.748815" width="16.123223" y="247.091876" x="20.443128"/>
  <path id="svg_21" d="m48.259079,308.145203l-25.999998,-36l50.000006,31l256.000008,-2l-13,21l-244.000008,1l-23.000008,-15z" stroke-width="5" fill="rgba(139, 139, 139, 1)" stroke="rgba(0, 0, 0, 1)"/>
  <path id="svg_22" d="m171.708038,264.847015c8.774033,0 15.886932,6.831665 15.886932,15.181458s-7.149124,15.181488 -15.886932,15.181488s-15.886948,-6.831665 -15.886948,-15.181488s5.910583,-15.258881 14.648392,-15.258881l1.238556,0.077423z" stroke-width="5" fill="rgba(0, 0, 0, 1)" stroke="rgba(0, 0, 0, 1)"/>
  <rect id="svg_23" stroke-width="5" stroke="rgba(0, 0, 0, 1)" fill="rgba(0, 0, 0, 1)" height="17.079165" width="71.958507" y="270.540455" x="183.856872"/>
  <path id="svg_24" d="m261.422546,278.130798l34.577454,0" stroke-width="5" fill="rgba(0, 0, 0, 1)" stroke="rgba(0, 0, 0, 1)"/>
  <ellipse id="svg_25" stroke-width="5" stroke="rgba(0, 0, 0, 1)" fill="rgba(0, 0, 0, 1)" ry="8.549109" rx="2.803578" cy="279.085855" cx="257.656744"/>
  <path id="svg_26" d="m171.03833,263.727325c2.882019,0 5.218414,7.294464 5.218414,16.20993s-2.348282,16.2099 -5.218414,16.2099s4.070679,-7.758911 4.070679,-16.674377s-7.405273,-15.745453 -4.535141,-15.745453l0.464462,0z" stroke-width="3" fill="rgba(255, 255, 255, 1)" stroke="rgba(193, 193, 193, 1)"/>
  <text id="svg_27" transform="scale(1) translate(0,0) " stroke="rgba(0, 0, 0, 1)" fill="rgba(0, 0, 0, 1)" font-family="Arial" font-size="24" y="409.5" x="857"/>
  <text id="svg_28" transform="matrix(0.5302242636680603,0,0,0.5840573906898499,44.31478571077332,204.07786899389066) " stroke="rgba(0, 0, 0, 1)" fill="rgba(0, 0, 0, 1)" font-family="Arial" font-size="24" y="197.049562" x="94.331786">A</text>
  <text id="svg_29" transform="scale(1) translate(0,0) " stroke="rgba(0, 0, 0, 1)" fill="rgba(0, 0, 0, 1)" font-family="Arial" font-size="240" y="182.5" x="640"/>
  <text id="svg_30" transform="matrix(0.5281322002410889,0,0,0.5208662748336792,43.13042834098087,234.00794476694136) " stroke="rgba(0, 0, 0, 1)" fill="rgba(0, 0, 0, 1)" font-family="Arial" font-size="24" y="157.970362" x="91.403633">L</text>
  <text id="svg_31" transform="matrix(0.5281322002410889,0,0,0.5208662748336792,50.86294826943595,233.90840666229633) " stroke="rgba(0, 0, 0, 1)" fill="rgba(0, 0, 0, 1)" font-family="Arial" font-size="24" y="157.762621" x="107.790679">L</text>
  <text id="svg_32" transform="matrix(0.5302242636680603,0,0,0.5840573906898499,52.013025355211084,203.99145815923293) " stroke="rgba(0, 0, 0, 1)" fill="rgba(0, 0, 0, 1)" font-family="Arial" font-size="24" y="196.841821" x="110.718832">A</text>
  <text id="svg_33" transform="matrix(0.5281322002410889,0,0,0.5208662748336792,58.53612021222398,233.8642805398922) " stroke="rgba(0, 0, 0, 1)" fill="rgba(0, 0, 0, 1)" font-family="Arial" font-size="24" y="157.670512" x="124.051955">L</text>
  <text id="svg_34" transform="matrix(0.5302242636680603,0,0,0.5840573906898499,59.65217544719371,203.95315434659278) " stroke="rgba(0, 0, 0, 1)" fill="rgba(0, 0, 0, 1)" font-family="Arial" font-size="24" y="196.749712" x="126.980108">A</text>
  <text id="svg_35" transform="matrix(0.5281322002410889,0,0,0.5208662748336792,66.26864014067905,233.76474243524717) " stroke="rgba(0, 0, 0, 1)" fill="rgba(0, 0, 0, 1)" font-family="Arial" font-size="24" y="157.462771" x="140.439001">L</text>
  <text id="svg_36" transform="matrix(0.5302242636680603,0,0,0.5840573906898499,67.35041509163148,203.86674351193506) " stroke="rgba(0, 0, 0, 1)" fill="rgba(0, 0, 0, 1)" font-family="Arial" font-size="24" y="196.541971" x="143.367154">A</text>
  <text id="svg_37" transform="matrix(0.5281322002410889,0,0,0.5208662748336792,74.63517094541385,233.82800683264213) " stroke="rgba(0, 0, 0, 1)" fill="rgba(0, 0, 0, 1)" font-family="Arial" font-size="24" y="157.594803" x="158.169669">L</text>
  <text id="svg_38" transform="matrix(0.5302242636680603,0,0,0.5840573906898499,75.67985348586262,203.92165930846568) " stroke="rgba(0, 0, 0, 1)" fill="rgba(0, 0, 0, 1)" font-family="Arial" font-size="24" y="196.674003" x="161.097822">A</text>
  <text id="svg_39" transform="matrix(0.5281322002410889,0,0,0.5208662748336792,82.36768684454,233.7284687279971) " stroke="rgba(0, 0, 0, 1)" fill="rgba(0, 0, 0, 1)" font-family="Arial" font-size="24" y="157.387062" x="174.556715">L</text>
  <text id="svg_40" transform="matrix(0.5302242636680603,0,0,0.5840573906898499,83.37808908501029,203.83524847380795) " stroke="rgba(0, 0, 0, 1)" fill="rgba(0, 0, 0, 1)" font-family="Arial" font-size="24" y="196.466262" x="177.484868">A</text>
  <text id="svg_41" transform="matrix(0.5281322002410889,0,0,0.5208662748336792,90.04085878732803,233.68432671001574) " stroke="rgba(0, 0, 0, 1)" fill="rgba(0, 0, 0, 1)" font-family="Arial" font-size="24" y="157.294953" x="190.817991">L</text>
  <text id="svg_42" transform="matrix(0.5302242636680603,0,0,0.5840573906898499,91.01723917699292,203.79692683715075) " stroke="rgba(0, 0, 0, 1)" fill="rgba(0, 0, 0, 1)" font-family="Arial" font-size="24" y="196.374153" x="193.746144">A</text>
  <text id="svg_43" transform="matrix(0.5281322002410889,0,0,0.5208662748336792,97.77338274511203,233.5847886053707) " stroke="rgba(0, 0, 0, 1)" fill="rgba(0, 0, 0, 1)" font-family="Arial" font-size="24" y="157.087212" x="207.205037">L</text>
  <text id="svg_44" transform="matrix(0.5302242636680603,0,0,0.5840573906898499,98.71548286672078,203.71053382651007) " stroke="rgba(0, 0, 0, 1)" fill="rgba(0, 0, 0, 1)" font-family="Arial" font-size="24" y="196.166412" x="210.133189">A</text>
  <text id="svg_45" transform="matrix(0.5281322002410889,0,0,0.5208662748336792,105.73698871647503,233.69856914721822) " stroke="rgba(0, 0, 0, 1)" fill="rgba(0, 0, 0, 1)" font-family="Arial" font-size="24" y="157.324671" x="224.081822">L</text>
  <text id="svg_46" transform="matrix(0.5302242636680603,0,0,0.5840573906898499,106.64378220429717,203.80929670498335) " stroke="rgba(0, 0, 0, 1)" fill="rgba(0, 0, 0, 1)" font-family="Arial" font-size="24" y="196.403871" x="227.009974">A</text>
  <text id="svg_47" transform="matrix(0.5281322002410889,0,0,0.5208662748336792,113.46950461560118,233.5990310425732) " stroke="rgba(0, 0, 0, 1)" fill="rgba(0, 0, 0, 1)" font-family="Arial" font-size="24" y="157.11693" x="240.468867">L</text>
  <text id="svg_48" transform="matrix(0.5302242636680603,0,0,0.5840573906898499,114.34201780344483,203.72288587032563) " stroke="rgba(0, 0, 0, 1)" fill="rgba(0, 0, 0, 1)" font-family="Arial" font-size="24" y="196.19613" x="243.39702">A</text>
  <text id="svg_49" transform="matrix(0.5281322002410889,0,0,0.5208662748336792,121.14267655838921,233.55490492016907) " stroke="rgba(0, 0, 0, 1)" fill="rgba(0, 0, 0, 1)" font-family="Arial" font-size="24" y="157.024821" x="256.730143">L</text>
  <text id="svg_50" transform="matrix(0.5302242636680603,0,0,0.5840573906898499,121.98117598600766,203.68458205768547) " stroke="rgba(0, 0, 0, 1)" fill="rgba(0, 0, 0, 1)" font-family="Arial" font-size="24" y="196.104021" x="259.658296">A</text>
  <text id="svg_51" transform="matrix(0.5281322002410889,0,0,0.5208662748336792,128.8752005161732,233.45536681552403) " stroke="rgba(0, 0, 0, 1)" fill="rgba(0, 0, 0, 1)" font-family="Arial" font-size="24" y="156.81708" x="273.117189">L</text>
  <text id="svg_52" transform="matrix(0.5302242636680603,0,0,0.5840573906898499,129.67941158515532,203.59817122302775) " stroke="rgba(0, 0, 0, 1)" fill="rgba(0, 0, 0, 1)" font-family="Arial" font-size="24" y="195.89628" x="276.045342">A</text>
  <text id="svg_53" transform="matrix(0.5281322002410889,0,0,0.5208662748336792,136.71134269647155,233.56914735737155) " stroke="rgba(0, 0, 0, 1)" fill="rgba(0, 0, 0, 1)" font-family="Arial" font-size="24" y="157.054539" x="289.723842">L</text>
  <text id="svg_54" transform="matrix(0.5302242636680603,0,0,0.5840573906898499,137.4808182629513,203.69693410150103) " stroke="rgba(0, 0, 0, 1)" fill="rgba(0, 0, 0, 1)" font-family="Arial" font-size="24" y="196.133739" x="292.651995">A</text>
  <text id="svg_55" transform="matrix(0.5281322002410889,0,0,0.5208662748336792,144.44386665425554,233.4696092527265) " stroke="rgba(0, 0, 0, 1)" fill="rgba(0, 0, 0, 1)" font-family="Arial" font-size="24" y="156.846798" x="306.110888">L</text>
  <text id="svg_56" transform="matrix(0.5302242636680603,0,0,0.5840573906898499,145.17905386209895,203.6105232668433) " stroke="rgba(0, 0, 0, 1)" fill="rgba(0, 0, 0, 1)" font-family="Arial" font-size="24" y="195.925998" x="309.039041">A</text>
  <rect id="svg_57" stroke-width="0" stroke="rgba(0, 0, 0, 1)" fill="rgba(255, 255, 255, 1)" height="7.279621" width="4.322275" y="275.878606" x="173.440758"/>
 </g>
</svg>