<!-- Made in Mondrian.io -->
<svg id="main" width="1000" height="750" version="1.1" xmlns="http://www.w3.org/2000/svg" xmlns:mondrian="http://mondrian.io/xml" viewbox="0 0 1000 750" enable-background="new 0 0 1000 750" style="width: 1000px; height: 750px; transform: scale(0.5868);">
<path stroke="rgba(0, 0, 0, 1)" fill="rgba(255, 255, 255, 1)" stroke-width="5" d="M21.253856280607952,419.7464454976303 L393.57819905213216,421.7515967749248 L344.5641527649224,497.2593820174027 L74.09836291014466,500.48815165876715 L19.718009478673018,421.0263292916466z"  style="display: block;"/>
<text x="79.82622432859398" y="440.57627584312115" font-size="240" font-family="Arial Black" fill="rgba(255, 255, 0, 1)" stroke="rgba(0, 0, 0, 1)" style="display: block;" stroke-width="5" transform="rotate(0 203.826 295.576) scale(1.3262032085561497 1.2083333333333335) translate(-19.634676145339647 -75.96142686950368)" >

A</text>
<path fill="rgba(0, 0, 255, 1)" stroke="rgba(0, 0, 0, 1)" stroke-width="6" d="M448.5143713529146,296.2197531776046 C511.6161278646806,310.5513215968812 536.7057280936482,344.33991517128203 519.451448592443,367.3291783533821 S472.8740940331552,348.342568343563 410.03284307083413,334.0701655214411 S266.0878851991945,365.3345237418236 283.34216470040496,342.34526055972407 S385.6731203905888,281.9473503554826 448.5143713529112,296.21975317760473z" />
<text x="358.3809831383319" y="494.32393027661703" font-size="240" font-family="Arial Black" fill="rgba(0, 0, 255, 1)" stroke="rgba(0, 0, 0, 1)" style="display: block;" stroke-width="5" transform="rotate(0 451.881 374.324) scale(1 1) translate(0 0)" >

B</text>
<path stroke="rgba(0, 0, 0, 1)" fill="rgba(255, 255, 0, 1)" stroke-width="6" d="M247.28469392682095,242.90995260663533 L231.46688297997827,199.34770120222802 L222.1430955266047,223.95640737154534 L213.17077912100078,199.34770120222802 L205.16623368269836,224.50484400832107 L194.30292201643098,199.34770120222848 L184.9924062497847,223.6060765447186 L178.21364249309408,200.57348288383946 L154.1895734597168,260.0566858624562" />
<path stroke="rgba(0, 0, 0, 1)" fill="rgba(0, 0, 255, 1)" stroke-width="6" d="M364.9067796467653,448.65275040029076 C399.86845102736595,440.2037091547837 418.0183717539617,455.1953919684101 423.0048415145652,475.82913159090356 S383.5918560865805,492.18564457648165 348.77451839676814,500.59980530116593 S310.2361990941856,556.4837298643637 305.249729333583,535.8499902418724 S330.08944195695426,457.06691112497606 364.9067796467655,448.65275040029115z"  style="display: block;"/>
<path fill="rgba(0, 0, 255, 1)" stroke="rgba(0, 0, 0, 1)" stroke-width="6" d="M369.47832390341483,394.3657898454907 C400.59439228808026,394.1457197006011 376.53413109912924,418.8436419399489 376.2112238041027,439.23791623852077 S369.53800405828633,449.47879285451086 338.5503934050578,449.69795447486536 S294.09864400765014,493.4975996774634 294.42155130267633,473.10332537889144 S328.874982177319,394.930687519593 359.86259283054756,394.7115258992378z" />
<path fill="rgba(0, 0, 255, 1)" stroke="rgba(0, 0, 0, 1)" stroke-width="6" d="M380.8155835049349,327.2671794200856 C410.70886053199405,339.2880336294056 414.2353096082922,390.01973331561334 406.0614173817612,409.3023807556523 S388.25984842582943,400.8154950996329 358.48998103088184,388.84426707195644 S285.016054725952,419.0571695279106 293.1899469524826,399.774522087872 S351.0457161099871,320.82517730078195 380.8155835049349,332.79640532845855z" />
<rect x="369" y="313.99999999999994" width="58.717082217171935" height="177.58290795422295"  fill="rgba(0, 0, 255, 1)" stroke="rgba(0, 0, 0, 1)" stroke-width="0"/>
<path stroke="rgba(0, 0, 0, 1)" fill="rgba(0, 0, 255, 1)" stroke-width="0" d="M486.25549076470054,313.323930276617 L476.4482756473116,313.323930276617 L379.380983138332,321.55471535801047 L520.1778098434629,350.59159975941026 L486.25549076470054,313.323930276617z"  style="display: block;"/>
<path stroke="rgba(0, 0, 0, 1)" fill="rgba(0, 0, 255, 1)" stroke-width="0" d="M492.2840327983355,322.00845531267777 C506.69685653210865,322.00845531267777 514.3809831383317,328.5254087435455 518.3809831383321,345.37946293682705 C521.3492072306577,357.8861153642985 506.637355485333,368.75047056097725 492.2840327983355,368.7504705609772 S467.18708245834,356.23351713010965 467.18708245834,343.3794629368268 S481.5161211972643,319.14012644393654 495.86944388426105,319.14012644393654z"  style="display: block;"/>
<path stroke="rgba(0, 0, 0, 1)" fill="rgba(0, 0, 255, 1)" stroke-width="5" d="M115.00000000000004,455.4999999999999" />
<ellipse cx="131.5" cy="523.25" rx="15.5" ry="16.25"  fill="rgba(193, 193, 193, 1)" stroke="rgba(0, 0, 0, 1)" stroke-width="15"/>
<path fill="rgba(193, 193, 193, 1)" stroke="rgba(0, 0, 0, 1)" stroke-width="15" d="M275.50000000000017,507.00000000000074 C284.06034000000005,507.00000000000074 291,513.9750000000008 291,522.5 S284.0250000000002,538 275.5,538 S260,531.0250000000015 260,522.5 S266.9749999999998,507 275.5,507z" />
<path stroke="rgba(0, 0, 0, 1)" fill="rgba(255, 255, 255, 1)" stroke-width="5" d="M90.04167450336854,442.65358995818457 C115.53115494774593,444.6613774544341 114.12159657602031,438.6380149656867 114.12159657602031,460.72367742442606 S102.63465586691538,500.6034755134282 77.25040468199529,500.6034755134282 S16.798578199052127,448.6769524469315 16.798578199052127,426.59128998819267 S36.2503430534358,442.9295417941607 61.634594238355845,442.9295417941607z"  style="display: block;"/>
<path stroke="rgba(0, 0, 0, 1)" fill="rgba(255, 255, 255, 1)" stroke-width="0" d="M80.17772511848335,442.575829383886 L129.99999999999997,444.5758293838863 L123.99999999999987,495.2772511848341 L80.17772511848335,498.2772511848337 L80.17772511848335,442.575829383886z"  style="display: block;"/>
<rect x="20.116113744075843" y="422.33412322274864" width="13.933649289099536" height="6.947867298578281"  fill="rgba(255, 255, 255, 1)" stroke="rgba(0, 0, 0, 1)" stroke-width="0"/>
<rect x="27.09715639810427" y="424.1255924170614" width="48.88151658767768" height="25.848341232227728"  fill="rgba(255, 255, 255, 1)" stroke="rgba(0, 0, 0, 1)" stroke-width="0"/>
<rect x="66.76540284360189" y="443.5995260663507" width="24.056872037914683" height="9.469194312796215"  fill="rgba(255, 255, 255, 1)" stroke="rgba(0, 0, 0, 1)" stroke-width="0"/>
<rect x="20.443127962085303" y="423.3815165876777" width="16.123222748815177" height="10.748815165874316"  fill="rgba(255, 255, 255, 1)" stroke="rgba(0, 0, 0, 1)" stroke-width="0"/>
<path stroke="rgba(0, 0, 0, 1)" fill="rgba(139, 139, 139, 1)" stroke-width="5" d="M48.25908372827797,484.43522906793044 L22.259083728278036,448.4352290679304 L72.25908372827799,479.43522906793055 L328.25908372827786,477.4352290679308 L315.25908372827774,498.4352290679304 L71.25908372827801,499.4352290679298 L48.25908372827797,484.43522906793044z" />
<path stroke="rgba(0, 0, 0, 1)" fill="rgba(0, 0, 0, 1)" stroke-width="5" d="M171.70803365867155,441.13703997844993 C180.48207457526323,441.13703997844993 187.59497672485588,447.9687059832988 187.59497672485594,456.31851998922485 S180.44585234507238,471.5 171.7080336586714,471.5 S155.82109059248603,464.66833399515104 155.82109059248603,456.31851998922485 S161.73166836879386,441.05963081573293 170.46948705519583,441.05963081573293z"  style="display: block;"/>
<rect x="183.8568724739889" y="446.83009498249066" width="71.95850682919043" height="17.07916501212184"  fill="rgba(0, 0, 0, 1)" stroke="rgba(0, 0, 0, 1)" stroke-width="5"/>
<path stroke="rgba(0, 0, 0, 1)" fill="rgba(0, 0, 0, 1)" stroke-width="5" d="M261.4225356794801,454.4208349878781 L296.0000000000001,454.4208349878781" />
<ellipse cx="257.6567438153681" cy="455.37549573168815" rx="2.803578188150282" ry="8.549109079987874"  fill="rgba(0, 0, 0, 1)" stroke="rgba(0, 0, 0, 1)" stroke-width="5"/>
<path stroke="rgba(193, 193, 193, 1)" fill="rgba(255, 255, 255, 1)" stroke-width="3" d="M171.03832680816055,440.01737756714016 C173.92035668658482,440.01737756714016 176.2567484030496,447.31183460402684 176.2567484030496,456.2272820935513 S173.90845868534817,472.43718661996013 171.03832680816058,472.43718661996013 S175.10900473933637,464.678274606771 175.10900473933637,455.7628271172479 S167.70373995466903,440.0173775671404 170.57387183185767,440.0173775671404z"  style="display: block;"/>
<text x="857" y="409.5" font-size="24" font-family="Arial" fill="rgba(0, 0, 0, 1)" stroke="rgba(0, 0, 0, 1)"  stroke-width="1" transform="rotate(0 857 397.5) scale(1 1) translate(0 0)" style="display: block;"/>
<text x="94.33178631976378" y="495.45576619273317" font-size="24" font-family="Arial" fill="rgba(0, 0, 0, 1)" stroke="rgba(0, 0, 0, 1)"  stroke-width="1" transform="rotate(0 98.308 488.447) scale(0.5302242506150102 0.5840573986308661) translate(83.57744022041763 352.84401967449344)" style="display: block;">
A</text>
<text x="640" y="182.5" font-size="240" font-family="Arial" fill="rgba(0, 0, 0, 1)" stroke="rgba(0, 0, 0, 1)"  stroke-width="1" transform="rotate(0 640 62.5) scale(1 1) translate(0 0)" style="display: block;"/>
<text x="91.40363349131124" y="492.57898894154806" font-size="24" font-family="Arial" fill="rgba(0, 0, 0, 1)" stroke="rgba(0, 0, 0, 1)"  stroke-width="1" transform="rotate(0 94.836 486.329) scale(0.5281322153360064 0.5208662453923126) translate(81.66597074246712 453.11291046449077)" style="display: block;">
L</text>
<text x="107.79067930489731" y="492.37124802527643" font-size="24" font-family="Arial" fill="rgba(0, 0, 0, 1)" stroke="rgba(0, 0, 0, 1)" stroke-width="1" transform="rotate(0 111.224 486.121) scale(0.5281322153360064 0.5208662453923126) translate(96.30722681567347 452.92181402451337)" >
L</text>
<text x="110.71883213334985" y="495.24802527646153" font-size="24" font-family="Arial" fill="rgba(0, 0, 0, 1)" stroke="rgba(0, 0, 0, 1)" stroke-width="1" transform="rotate(0 114.696 488.239) scale(0.5302242506150102 0.5840573986308661) translate(98.09627205120306 352.6960748024186)" >
A</text>
<text x="124.05195501363272" y="492.27913930424046" font-size="24" font-family="Arial" fill="rgba(0, 0, 0, 1)" stroke="rgba(0, 0, 0, 1)" stroke-width="1" transform="rotate(0 127.485 486.029) scale(0.5281322153360064 0.5208662453923126) translate(110.83611167002684 452.83708517573024)" >
L</text>
<text x="126.98010784208526" y="495.15591655542556" font-size="24" font-family="Arial" fill="rgba(0, 0, 0, 1)" stroke="rgba(0, 0, 0, 1)" stroke-width="1" transform="rotate(0 130.957 488.147) scale(0.5302242506150102 0.5840573986308661) translate(112.50367226567157 352.6304786108006)" >
A</text>
<text x="140.43900082721882" y="492.0713983879688" font-size="24" font-family="Arial" fill="rgba(0, 0, 0, 1)" stroke="rgba(0, 0, 0, 1)" stroke-width="1" transform="rotate(0 143.872 485.821) scale(0.5281322153360064 0.5208662453923126) translate(125.47736774323322 452.64598873575284)" >
L</text>
<text x="143.36715365567133" y="494.94817563915393" font-size="24" font-family="Arial" fill="rgba(0, 0, 0, 1)" stroke="rgba(0, 0, 0, 1)" stroke-width="1" transform="rotate(0 147.344 487.939) scale(0.5302242506150102 0.5840573986308661) translate(127.022504096457 352.48253373872575)" >
A</text>
<text x="158.1696693119995" y="492.2034297071786" font-size="24" font-family="Arial" fill="rgba(0, 0, 0, 1)" stroke="rgba(0, 0, 0, 1)" stroke-width="1" transform="rotate(0 161.603 485.953) scale(0.5281322153360064 0.5208662453923126) translate(141.31910398952948 452.7674415314723)" >
L</text>
<text x="161.09782214045205" y="495.0802069583637" font-size="24" font-family="Arial" fill="rgba(0, 0, 0, 1)" stroke="rgba(0, 0, 0, 1)" stroke-width="1" transform="rotate(0 165.075 488.072) scale(0.5302242506150102 0.5840573986308661) translate(142.73177817223402 352.5765612272963)" >
A</text>
<text x="174.55671512558558" y="491.99568879090697" font-size="24" font-family="Arial" fill="rgba(0, 0, 0, 1)" stroke="rgba(0, 0, 0, 1)" stroke-width="1" transform="rotate(0 177.99 485.745) scale(0.5281322153360064 0.5208662453923126) translate(155.96036006273584 452.5763450914949)" >
L</text>
<text x="177.48486795403812" y="494.87246604209207" font-size="24" font-family="Arial" fill="rgba(0, 0, 0, 1)" stroke="rgba(0, 0, 0, 1)" stroke-width="1" transform="rotate(0 181.462 487.864) scale(0.5302242506150102 0.5840573986308661) translate(157.25061000301943 352.4286163552214)" >
A</text>
<text x="190.817990834321" y="491.903580069871" font-size="24" font-family="Arial" fill="rgba(0, 0, 0, 1)" stroke="rgba(0, 0, 0, 1)" stroke-width="1" transform="rotate(0 194.251 485.653) scale(0.5281322153360064 0.5208662453923126) translate(170.4892449170892 452.49161624271176)" >
L</text>
<text x="193.74614366277356" y="494.7803573210561" font-size="24" font-family="Arial" fill="rgba(0, 0, 0, 1)" stroke="rgba(0, 0, 0, 1)" stroke-width="1" transform="rotate(0 197.723 487.772) scale(0.5302242506150102 0.5840573986308661) translate(171.658010217488 352.36302016360344)" >
A</text>
<text x="207.20503664790706" y="491.69583915359937" font-size="24" font-family="Arial" fill="rgba(0, 0, 0, 1)" stroke="rgba(0, 0, 0, 1)" stroke-width="1" transform="rotate(0 210.638 485.445) scale(0.5281322153360064 0.5208662453923126) translate(185.13050099029556 452.30051980273436)" >
L</text>
<text x="210.13318947635955" y="494.57261640478447" font-size="24" font-family="Arial" fill="rgba(0, 0, 0, 1)" stroke="rgba(0, 0, 0, 1)" stroke-width="1" transform="rotate(0 214.11 487.564) scale(0.5302242506150102 0.5840573986308661) translate(186.17684204827333 352.21507529152854)" >
A</text>
<text x="224.08182158139917" y="491.93329793558263" font-size="24" font-family="Arial" fill="rgba(0, 0, 0, 1)" stroke="rgba(0, 0, 0, 1)" stroke-width="1" transform="rotate(0 227.515 485.683) scale(0.5281322153360064 0.5208662453923126) translate(200.20932195135168 452.5189530738144)" >
L</text>
<text x="227.0099744098517" y="494.81007518676773" font-size="24" font-family="Arial" fill="rgba(0, 0, 0, 1)" stroke="rgba(0, 0, 0, 1)" stroke-width="1" transform="rotate(0 230.987 487.801) scale(0.5302242506150102 0.5840573986308661) translate(201.12958002686352 352.38418405331737)" >
A</text>
<text x="240.46886739498524" y="491.725557019311" font-size="24" font-family="Arial" fill="rgba(0, 0, 0, 1)" stroke="rgba(0, 0, 0, 1)" stroke-width="1" transform="rotate(0 243.902 485.475) scale(0.5281322153360064 0.5208662453923126) translate(214.85057802455802 452.327856633837)" >
L</text>
<text x="243.39702022343778" y="494.6023342704961" font-size="24" font-family="Arial" fill="rgba(0, 0, 0, 1)" stroke="rgba(0, 0, 0, 1)" stroke-width="1" transform="rotate(0 247.374 487.594) scale(0.5302242506150102 0.5840573986308661) translate(215.64841185764894 352.23623918124247)" >
A</text>
<text x="256.7301431037207" y="491.633448298275" font-size="24" font-family="Arial" fill="rgba(0, 0, 0, 1)" stroke="rgba(0, 0, 0, 1)" stroke-width="1" transform="rotate(0 260.163 485.383) scale(0.5281322153360064 0.5208662453923126) translate(229.37946287891145 452.24312778505384)" >
L</text>
<text x="259.65829593217325" y="494.51022554946013" font-size="24" font-family="Arial" fill="rgba(0, 0, 0, 1)" stroke="rgba(0, 0, 0, 1)" stroke-width="1" transform="rotate(0 263.635 487.502) scale(0.5302242506150102 0.5840573986308661) translate(230.0558120721175 352.1706429896245)" >
A</text>
<text x="273.1171889173068" y="491.4257073820034" font-size="24" font-family="Arial" fill="rgba(0, 0, 0, 1)" stroke="rgba(0, 0, 0, 1)" stroke-width="1" transform="rotate(0 276.55 485.175) scale(0.5281322153360064 0.5208662453923126) translate(244.02071895211782 452.05203134507644)" >
L</text>
<text x="276.0453417457593" y="494.3024846331885" font-size="24" font-family="Arial" fill="rgba(0, 0, 0, 1)" stroke="rgba(0, 0, 0, 1)" stroke-width="1" transform="rotate(0 280.022 487.294) scale(0.5302242506150102 0.5840573986308661) translate(244.5746439029029 352.0226981175496)" >
A</text>
<text x="289.7238420792029" y="491.66316616398683" font-size="24" font-family="Arial" fill="rgba(0, 0, 0, 1)" stroke="rgba(0, 0, 0, 1)" stroke-width="1" transform="rotate(0 293.157 485.413) scale(0.5281322153360064 0.5208662453923126) translate(258.8581865608713 452.27046461615663)" >
L</text>
<text x="292.6519949076554" y="494.53994341517193" font-size="24" font-family="Arial" fill="rgba(0, 0, 0, 1)" stroke="rgba(0, 0, 0, 1)" stroke-width="1" transform="rotate(0 296.629 487.531) scale(0.5302242506150102 0.5840573986308661) translate(259.2880466279904 352.19180687933857)" >
A</text>
<text x="306.1108878927889" y="491.4554252477152" font-size="24" font-family="Arial" fill="rgba(0, 0, 0, 1)" stroke="rgba(0, 0, 0, 1)" stroke-width="1" transform="rotate(0 309.544 485.205) scale(0.5281322153360064 0.5208662453923126) translate(273.49944263407764 452.07936817617923)" >
L</text>
<text x="309.03904072124146" y="494.3322024989003" font-size="24" font-family="Arial" fill="rgba(0, 0, 0, 1)" stroke="rgba(0, 0, 0, 1)" stroke-width="1" transform="rotate(0 313.016 487.324) scale(0.5302242506150102 0.5840573986308661) translate(273.80687845877577 352.0438620072637)" >
A</text>
<rect x="173.44075829383885" y="452.1682464454976" width="4.322274881516654" height="7.2796208530807105"  fill="rgba(255, 255, 255, 1)" stroke="rgba(0, 0, 0, 1)" stroke-width="0"/>
</svg>
